<?xml version="1.0" encoding="UTF-8" standalone="no"?>
<!-- Created with Inkscape (http://www.inkscape.org/) -->

<svg
   width="500"
   height="500"
   id="svg1968"
   sodipodi:version="0.32"
   inkscape:version="1.4.3 (0d15f75, 2025-12-25)"
   version="1.0"
   sodipodi:docname="java.svg"
   xmlns:inkscape="http://www.inkscape.org/namespaces/inkscape"
   xmlns:sodipodi="http://sodipodi.sourceforge.net/DTD/sodipodi-0.dtd"
   xmlns="http://www.w3.org/2000/svg"
   xmlns:svg="http://www.w3.org/2000/svg"
   xmlns:rdf="http://www.w3.org/1999/02/22-rdf-syntax-ns#"
   xmlns:cc="http://creativecommons.org/ns#"
   xmlns:dc="http://purl.org/dc/elements/1.1/">
  <defs
     id="defs1970" />
  <sodipodi:namedview
     id="base"
     pagecolor="#ffffff"
     bordercolor="#666666"
     borderopacity="1.0"
     inkscape:pageopacity="0.0"
     inkscape:pageshadow="2"
     inkscape:zoom="0.43401255"
     inkscape:cx="-221.19176"
     inkscape:cy="-56.44998"
     inkscape:document-units="px"
     inkscape:current-layer="Ebene_x0020_1"
     width="68.51mm"
     height="129.89mm"
     units="mm"
     inkscape:window-width="1920"
     inkscape:window-height="1008"
     inkscape:window-x="1920"
     inkscape:window-y="0"
     inkscape:showpageshadow="2"
     inkscape:pagecheckerboard="0"
     inkscape:deskcolor="#d1d1d1"
     inkscape:window-maximized="1" />
  <metadata
     id="metadata1973">
    <rdf:RDF>
      <cc:Work
         rdf:about="">
        <dc:format>image/svg+xml</dc:format>
        <dc:type
           rdf:resource="http://purl.org/dc/dcmitype/StillImage" />
      </cc:Work>
    </rdf:RDF>
  </metadata>
  <g
     inkscape:label="Ebene 1"
     inkscape:groupmode="layer"
     id="layer1"
     transform="translate(3824.556,782.8939)">
    <g
       id="Ebene_x0020_1"
       transform="translate(-3826.724,-785.8793)"
       inkscape:label="Ebene 1"
       inkscape:groupmode="layer">
      <metadata
         id="CorelCorpID_0Corel-Layer" />
      <path
         id="path7"
         style="fill:#0c0c0c;fill-opacity:1"
         d="m 146.94681,534.35268 v 80.97657 c 0,11.9386 -0.52135,17.13007 -2.59766,20.76367 -2.0761,4.15279 -7.26635,8.82508 -12.45703,11.93945 l 6.74805,8.30469 c 7.7858,-2.5951 14.01533,-7.26716 18.16796,-13.4961 4.15283,-6.2292 5.71094,-12.45732 5.71094,-28.54882 v -79.93946 z m 56.57812,23.87696 c -10.3816,0 -19.20579,2.59657 -26.99219,5.71093 l 2.59571,9.34375 c 5.7097,-2.07631 12.97727,-4.15429 20.76367,-4.15429 9.86254,0 14.53516,4.15351 14.53516,12.45898 v 6.74805 h -5.19141 c -24.9162,0 -36.33594,9.34329 -36.33594,24.39648 0,12.4581 7.78541,19.72657 21.80078,19.72656 8.82428,0 15.57384,-4.15307 21.80274,-9.34375 l 1.03711,7.78516 h 11.41992 v -50.86914 c 0,-12.9775 -7.26735,-21.80273 -25.43555,-21.80273 z m 132.88672,0 c -10.3818,0 -19.20579,2.59657 -26.99219,5.71093 l 2.07617,9.34375 c 6.22894,-2.07631 13.49671,-4.15429 21.28321,-4.15429 9.86254,0 14.5332,4.15351 14.5332,12.45898 v 6.74805 h -5.19141 c -24.9162,0 -36.33593,9.34329 -36.33593,24.39648 0,12.4581 7.268,19.72657 21.2832,19.72656 9.34351,0 16.09121,-4.15307 22.32031,-9.34375 l 1.03907,7.78516 h 11.41992 v -50.86914 c 0,-12.9775 -7.26755,-21.80273 -25.43555,-21.80273 z m -98.62695,1.55859 21.80273,71.11328 h 18.16797 c 10.3818,-22.321 17.64815,-47.75438 21.80078,-71.11328 h -15.57226 c -2.0763,18.6868 -7.26746,37.89328 -14.01563,56.58008 l -3.11328,-12.97852 -13.49609,-43.60156 z" />
      <g
         id="g7"
         transform="matrix(1.35575,0,0,1.35575,-94.059771,6.4477531)"
         style="fill:#ffffff;fill-opacity:1">
        <path
           d="m 214.79411,266.74111 c 0,0 -11.9391,7.2672 8.30525,9.34351 24.3967,3.11437 37.3741,2.59576 64.3663,-2.59534 0,0 7.2672,4.67165 17.1297,8.30546 -60.7327,25.9542 -137.557,-1.5577 -89.8013,-15.0536 z m -7.78643,-33.7402 c 0,0 -12.9769,9.86233 7.2672,11.9386 26.4735,2.59576 47.2368,3.11437 83.0534,-4.15263 0,0 4.67186,5.19089 12.4579,7.78643 -73.1906,21.8016 -155.206,2.07631 -102.778,-15.5725 z m 143.267,59.1754 c 0,0 8.82449,7.26741 -9.86254,12.9769 -34.7787,10.3818 -145.863,13.4961 -177.008,0 -10.9006,-4.67144 9.86275,-11.4198 16.6105,-12.4579 6.74817,-1.55708 10.3816,-1.55708 10.3816,-1.55708 -11.9384,-8.30546 -79.4195,17.1295 -34.2595,24.3967 124.061,20.2443 226.321,-8.82428 194.137,-23.3587 z m -129.771,-94.4732 c 0,0 -56.5799,13.4961 -20.2439,18.1678 15.5725,2.0761 46.1983,1.5575 74.7481,-0.51903 23.3585,-2.07631 46.7176,-6.22894 46.7176,-6.22894 0,0 -8.30546,3.63339 -14.0156,7.26741 -57.6179,15.053 -168.183,8.30504 -136.519,-7.26741 26.9923,-12.9773 49.3125,-11.4198 49.3125,-11.4198 z m 101.222,56.5799 c 58.1372,-30.1069 31.1451,-59.1754 12.4579,-55.5416 -4.67186,1.03805 -6.74817,2.07631 -6.74817,2.07631 0,0 1.55729,-3.11457 5.19068,-4.15263 36.8552,-12.9773 65.9238,38.9309 -11.9384,59.1752 0,0 0.51861,-0.51903 1.03805,-1.55729 z m -95.5117,82.0153 c 56.0613,3.63381 141.71,-2.07631 143.786,-28.5494 0,0 -4.15242,10.3818 -46.1981,18.1676 -47.7558,8.8247 -106.931,7.78643 -141.71,2.07631 0,0 7.26699,6.22915 44.122,8.30546 z"
           id="_227268128"
           style="fill:#ffffff;fill-opacity:1" />
        <path
           style="fill:#ffffff;fill-opacity:1"
           d="m 269.81741,175.3825 c 15.053,17.1299 -4.15283,32.7026 -4.15283,32.7026 0,0 38.4121,-19.7253 20.7633,-44.1224 -16.0919,-23.3585 -28.5498,-34.7783 38.9311,-73.7098 0,0 -106.412,26.4735 -55.5416,85.1297 z"
           id="path1" />
        <path
           style="fill:#ffffff;fill-opacity:1"
           d="m 286.42791,26.4055 c 0,0 32.1832,32.7022 -30.6261,82.0153 -50.3512,39.9692 -11.4198,62.8088 0,88.7629 -29.5878,-26.4728 -50.8702,-49.8319 -36.336,-71.6335 21.2828,-32.1832 79.939,-47.7554 66.9621,-99.1446 z"
           id="_230367536" />
      </g>
    </g>
  </g>
</svg>
