<?xml version="1.0" encoding="UTF-8" standalone="no"?>
<svg
   width="500"
   height="500"
   viewBox="0 0 500 500"
   fill="none"
   version="1.1"
   id="svg2"
   sodipodi:docname="kotlin.svg"
   inkscape:version="1.4.3 (0d15f75, 2025-12-25)"
   xmlns:inkscape="http://www.inkscape.org/namespaces/inkscape"
   xmlns:sodipodi="http://sodipodi.sourceforge.net/DTD/sodipodi-0.dtd"
   xmlns="http://www.w3.org/2000/svg"
   xmlns:svg="http://www.w3.org/2000/svg">
  <defs
     id="defs2" />
  <sodipodi:namedview
     id="namedview2"
     pagecolor="#ffffff"
     bordercolor="#000000"
     borderopacity="0.25"
     inkscape:showpageshadow="2"
     inkscape:pageopacity="0.0"
     inkscape:pagecheckerboard="0"
     inkscape:deskcolor="#d1d1d1"
     inkscape:zoom="0.90166274"
     inkscape:cx="329.39145"
     inkscape:cy="294.45599"
     inkscape:window-width="1920"
     inkscape:window-height="1008"
     inkscape:window-x="1920"
     inkscape:window-y="0"
     inkscape:window-maximized="1"
     inkscape:current-layer="svg2" />
  <path
     d="m 238.33421,561.29355 c 2.15,0 4.11,0.5002 5.86,1.5 1.75,1 3.13,2.3801 4.14,4.1201 1.01,1.7399 1.51,3.6998 1.51,5.8496 0,2.15 -0.5,4.1006 -1.51,5.8506 -1,1.75 -2.39,3.1201 -4.14,4.1201 -1.76,0.9999 -3.74,1.5 -5.89,1.5 -2.15,0 -4.1104,-0.5 -5.8604,-1.5 -1.7499,-0.9999 -3.1297,-2.3702 -4.1396,-4.1201 -1.01,-1.74 -1.5098,-3.7006 -1.5098,-5.8506 1e-4,-2.1498 0.5001,-4.0997 1.5,-5.8496 1,-1.7499 2.3797,-3.1201 4.1396,-4.1201 1.77,-1 3.7502,-1.5 5.9002,-1.5 z m 61.92,0 c 1.57,0 2.95,0.3503 4.13,1.0303 1.18,0.6799 2.1,1.6698 2.76,2.9697 l 0.01,0.0303 c 0.65,1.2899 0.98,2.8397 0.98,4.6396 v 13.7803 h -5.03 v -13.0098 c 0,-1.06 -0.18,-1.9602 -0.54,-2.7002 -0.36,-0.7399 -0.87,-1.3102 -1.54,-1.7002 -0.67,-0.3898 -1.47,-0.5898 -2.4,-0.5898 -1,0 -1.88,0.2199 -2.65,0.6699 -0.77,0.45 -1.37,1.07 -1.79,1.8799 -0.42,0.81 -0.63,1.7201 -0.63,2.75 v 12.6904 h -5.05 v -21.9199 h 4.9 v 3.21 c 0.629,-1.0599 1.44,-1.9199 2.45,-2.5498 1.25,-0.79 2.72,-1.1807 4.4,-1.1807 z m -40.58,-4.8398 v 5.3496 h 5.82 l -0.02,4.3906 h -5.82 l 0.02,11.0596 c 0,0.5999 0.2,1.1002 0.59,1.4902 0.39,0.39 0.89,0.5898 1.49,0.5898 h 3.72 v 4.3907 h -4.73 c -1.169,0 -2.23,-0.2502 -3.16,-0.75 -0.93,-0.5 -1.66,-1.2002 -2.18,-2.0801 -0.52,-0.8899 -0.78,-1.8902 -0.78,-3 l -0.02,-11.71 h -3.85 l 0.02,-4.3906 h 2.4 c 0.55,0 0.98,-0.1601 1.31,-0.5 0.33,-0.33 0.49,-0.76 0.49,-1.29 v -3.5498 z m 13.98,-2.69047 v 29.96097 h -5.05 v -29.96097 z m 9.96,8.04007 v 21.9209 h -5.05 v -21.9209 z m -75.5698,-8.04983 v 13.58983 l 12.3701,-13.58983 h 6.3906 l -13.1513,14.44043 13.4404,15.5195 h -6.5898 l -12.46,-14.2998 v 14.2998 h -5.2002 v -29.95993 z m 30.2798,12.03023 c -1.22,0 -2.32,0.2999 -3.26,0.8799 -0.9402,0.58 -1.6805,1.4 -2.2005,2.46 -0.5199,1.0598 -0.7792,2.2799 -0.7793,3.6396 0,1.3598 0.2595,2.5603 0.7793,3.6201 0.52,1.0499 1.2604,1.87 2.2005,2.46 0.94,0.59 2.04,0.8809 3.26,0.8809 1.22,-10e-5 2.31,-0.301 3.27,-0.8809 0.95,-0.58 1.69,-1.4 2.21,-2.46 0.52,-1.0599 0.78,-2.2502 0.78,-3.6201 0,-1.3698 -0.27,-2.58 -0.79,-3.6299 -0.52,-1.0498 -1.26,-1.87 -2.21,-2.4599 -0.95,-0.5899 -2.04,-0.8896 -3.26,-0.8897 z m 45.63,-11.29977 v 5.00977 h -5.76 v -5.00977 z m -57.1403,-0.73046 h -0.009 l 0.009,-0.01 z"
     fill="white"
     id="path1"
     style="fill:#262626;fill-opacity:1" />
  <path
     d="M 451.44994,451.44994 H 48.55006 V 48.55006 H 451.44994 L 245.84509,247.04121 Z"
     fill="white"
     id="path2"
     style="fill:#ffffff;fill-opacity:1;stroke-width:8.39375" />
</svg>
