<?xml version="1.0" encoding="UTF-8" standalone="no"?>
<!-- Created with Inkscape (http://www.inkscape.org/) -->

<svg
   version="1.1"
   id="svg29"
   xml:space="preserve"
   width="500"
   height="500"
   viewBox="0 0 499.99999 500"
   sodipodi:docname="Spring_Framework_Logo_2018.svg"
   inkscape:version="1.4.3 (0d15f75, 2025-12-25)"
   xmlns:inkscape="http://www.inkscape.org/namespaces/inkscape"
   xmlns:sodipodi="http://sodipodi.sourceforge.net/DTD/sodipodi-0.dtd"
   xmlns="http://www.w3.org/2000/svg"
   xmlns:svg="http://www.w3.org/2000/svg"
   xmlns:rdf="http://www.w3.org/1999/02/22-rdf-syntax-ns#"
   xmlns:cc="http://creativecommons.org/ns#"
   xmlns:dc="http://purl.org/dc/elements/1.1/"><metadata
     id="metadata35"><rdf:RDF><cc:Work
         rdf:about=""><dc:format>image/svg+xml</dc:format><dc:type
           rdf:resource="http://purl.org/dc/dcmitype/StillImage" /></cc:Work></rdf:RDF></metadata><defs
     id="defs33" /><sodipodi:namedview
     pagecolor="#ffffff"
     bordercolor="#666666"
     borderopacity="1"
     objecttolerance="10"
     gridtolerance="10"
     guidetolerance="10"
     inkscape:pageopacity="0"
     inkscape:pageshadow="2"
     inkscape:window-width="1920"
     inkscape:window-height="1008"
     id="namedview31"
     showgrid="false"
     inkscape:zoom="0.60658202"
     inkscape:cx="264.59736"
     inkscape:cy="5.7700359"
     inkscape:window-x="1920"
     inkscape:window-y="0"
     inkscape:window-maximized="1"
     inkscape:current-layer="g37"
     inkscape:showpageshadow="2"
     inkscape:pagecheckerboard="0"
     inkscape:deskcolor="#d1d1d1" /><g
     id="g37"
     inkscape:groupmode="layer"
     inkscape:label="ink_ext_XXXXXX"
     transform="matrix(1.3333333,0,0,-1.3333333,0,62.986667)"><path
       d="m 322.40641,-212.96849 c -40.72329,-54.25844 -127.71407,-35.94362 -183.48676,-38.57796 0,0 -9.87317,-0.54931 -19.81773,-2.18619 0,0 3.76026,1.60407 8.55589,3.25738 39.17162,13.5462 57.68323,16.2682 81.48507,28.49407 44.7214,22.90848 89.22943,72.80887 98.2855,124.645715 -17.02219,-49.855625 -68.79397,-92.765115 -115.93383,-110.189575 -32.26536,-11.90616 -90.6146,-23.49332 -90.623,-23.49822 0.0273,-0.0413 -2.325402,1.22147 -2.358283,1.24875 -39.681902,19.30633 -40.826905,105.25124 31.243283,132.955335 31.59866,12.155217 61.82335,5.479117 95.98248,13.609646 36.43278,8.662209 78.62869,35.971046 95.77962,71.674153 19.22727,-57.029829 42.32463,-146.253664 0.88776,-201.433104 z m 0.70797,219.1052135 c -4.84809,-11.517898 -10.76445,-21.8968795 -17.58536,-31.1803155 -30.02181,30.8116365 -71.9253,50.008833 -118.24245,50.008833 -91.109902,0 -165.224192,-74.122685 -165.224192,-165.215801 0,-47.75409 20.383476,-90.82238 52.881173,-121.01083 l 3.618162,-3.20548 c -6.042069,4.92715 -6.971183,13.80035 -2.074117,19.84788 4.927078,6.05025 13.808536,6.98762 19.853474,2.08783 6.06117,-4.91071 6.98461,-13.80581 2.077055,-19.86425 -4.88937,-6.06124 -13.786989,-6.97671 -19.839971,-2.0851 l 2.462174,-2.18074 c 28.745982,-24.20388 65.801382,-38.824 106.246242,-38.824 87.08662,0 158.59707,67.77189 164.7184,153.31173 4.53329,41.88251 -7.8374,95.063941 -28.89059,158.3102435"
       style="fill:#e3e3e3;fill-opacity:1;fill-rule:nonzero;stroke:none;stroke-width:0.699581"
       id="path55"
       inkscape:connector-curvature="0" /></g></svg>
